<?xml version="1.0" standalone="no"?>
<!DOCTYPE svg PUBLIC "-//W3C//DTD SVG 20010904//EN"
 "http://www.w3.org/TR/2001/REC-SVG-20010904/DTD/svg10.dtd">
<svg version="1.0" xmlns="http://www.w3.org/2000/svg"
 width="500.000000pt" height="500.000000pt" viewBox="0 0 500.000000 500.000000"
 preserveAspectRatio="xMidYMid meet">
<metadata>
Created by potrace 1.11, written by Peter Selinger 2001-2013
</metadata>
<g transform="translate(0.000000,500.000000) scale(0.100000,-0.100000)"
fill="#000000" stroke="none">
<path d="M2340 4814 c-484 -45 -918 -214 -1285 -502 -89 -70 -294 -275 -368
-369 -251 -317 -424 -721 -483 -1128 -24 -165 -25 -478 -1 -635 105 -681 474
-1258 1047 -1632 209 -137 515 -264 763 -317 1146 -246 2301 407 2681 1516
351 1027 -50 2146 -979 2728 -245 153 -544 262 -865 315 -121 20 -408 33 -510
24z m-510 -1146 c20 -32 20 -54 20 -1181 0 -1007 -2 -1152 -15 -1177 -27 -53
-103 -53 -130 0 -13 25 -15 171 -15 1183 0 1153 0 1154 21 1181 16 20 29 26
60 26 34 0 42 -5 59 -32z m-371 -523 c16 -8 31 -22 35 -30 3 -9 6 -293 6 -632
l0 -615 -29 -29 c-37 -37 -65 -37 -102 0 l-29 29 0 611 c0 427 3 617 11 635
20 42 63 55 108 31z m686 1 c18 -8 38 -23 44 -34 16 -30 15 -1212 0 -1246 -15
-32 -70 -59 -104 -50 -14 3 -36 20 -50 36 l-25 30 0 598 c0 452 3 606 12 626
7 15 26 33 43 40 38 17 39 17 80 0z m655 -1 c16 -8 34 -24 40 -34 6 -13 10
-230 10 -628 0 -605 0 -609 -21 -632 -44 -47 -99 -49 -141 -4 l-23 25 0 613
c0 599 0 613 20 635 36 40 71 48 115 25z m703 -17 c16 -19 17 -64 17 -640 0
-377 -4 -626 -10 -637 -16 -31 -64 -45 -96 -29 -55 26 -54 15 -54 668 0 540 2
608 16 628 32 46 93 50 127 10z m350 -299 c15 -19 17 -51 17 -341 l0 -319 -26
-24 c-36 -33 -69 -31 -105 4 l-29 29 0 312 0 312 30 30 c26 25 36 29 63 24 18
-3 40 -16 50 -27z m-1354 2 c29 -29 33 -79 29 -383 l-3 -276 -24 -26 c-43 -46
-121 -25 -136 37 -3 12 -5 158 -3 323 3 281 4 303 22 323 25 28 88 29 115 2z
m662 6 c37 -28 39 -50 39 -357 l0 -302 -29 -29 c-48 -47 -116 -38 -146 21 -12
24 -15 81 -15 325 l0 297 29 29 c23 22 39 29 68 29 21 0 45 -6 54 -13z m-1983
-143 c21 -24 22 -32 22 -210 0 -183 0 -185 -25 -209 -34 -35 -86 -34 -114 1
-20 25 -21 39 -21 213 1 130 4 191 13 202 35 45 86 46 125 3z m2951 21 c42
-21 51 -61 51 -231 0 -192 -14 -233 -82 -234 -77 -1 -88 28 -88 237 0 180 6
208 50 230 32 16 35 16 69 -2z"/>
</g>
</svg>
